<svg xmlns="http://www.w3.org/2000/svg" viewBox="0 0 24 24"><path fill="#2C2E2F" d="M14.505 18.425a.499.499 0 0 1-.312.1.5.5 0 0 1-.228-.953c.243-.206.806-.667 1.034-.862.697-.596 1.338-1.2 1.944-1.855 1.57-1.697 2.613-3.43 2.922-5.155.463-2.684-1.667-4.862-3.78-4.862-1.219 0-2.47.668-2.882 1.531a.5.5 0 0 1-.45.284h-.086a.5.5 0 0 1-.437-.256c-.497-.892-1.768-1.56-2.981-1.56-2.192 0-4.144 1.661-3.947 4.071.093.893.5 1.826 1.088 2.694a.5.5 0 0 1-.828.561c-.672-.993-1.142-2.07-1.255-3.162-.25-3.066 2.214-5.163 4.942-5.163 1.3 0 2.639.59 3.443 1.496.755-.905 2.085-1.496 3.393-1.496 2.7 0 5.34 2.7 4.765 6.036-.35 1.949-1.484 3.836-3.173 5.66-.2.217-.403.427-.61.633l.551-.25c1.46-.604 2.556-.646 3.319-.318.196.084.334.178.363.213.635.46.688 1.068.23 1.448a.819.819 0 0 1-.2.128l-5.968 3.249a2.955 2.955 0 0 1-.76.294c-.55.133-1.121.133-1.658.055a3.25 3.25 0 0 1-.327-.062l-5.16-1.554c-.397-.144-.712-.217-.953-.235a.77.77 0 0 0-.282.016l-.511.332a.5.5 0 0 1-.542-.84l.429-.265a.782.782 0 0 1 .27-.162c.413-.155 1.038-.11 1.904.205l5.106 1.538c.034.008.106.022.21.037.42.061.87.061 1.279-.037.185-.045.354-.11.51-.197L20.69 16.6a7.573 7.573 0 0 0-.03-.024s-.037-.024-.118-.06c-.498-.213-1.318-.182-2.526.318l-3.511 1.59zm-2.502-2.34c-.507-.28-1.29-.594-2.332-.934-1.162-.35-2.214-.473-2.89-.392a3.758 3.758 0 0 0-1.273.435l-2.272 1.22a.5.5 0 0 1-.472-.881L5.02 14.32a4.75 4.75 0 0 1 1.621-.552c.844-.101 2.032.036 3.329.428 2.43.793 3.583 1.43 3.578 2.339-.024.159-.102.353-.271.54-.256.282-.644.443-1.15.443H9.985a.5.5 0 1 1 0-1h2.145c.205 0 .32-.038.385-.093a3.147 3.147 0 0 0-.51-.34zm.914-5.95c.959-.072 1.196-1.219-.16-3.048-1.256 1.966-.847 3.124.16 3.048zm.075.997c-2.267.17-2.59-2.216-1.078-4.583l.781-1.223.865 1.165c1.635 2.205 1.593 4.479-.568 4.641z"/></svg>