<svg xmlns="http://www.w3.org/2000/svg" viewBox="0 0 24 24"><path fill="#2C2E2F" d="M21.922 4.036a.505.505 0 0 1 .006.065 49796.793 49796.793 0 0 1 .294 7.3.5.5 0 0 1-.393.51c-.145.03-.296.06-.458.087a.5.5 0 1 1-.166-.986l-.129-3.218-.13-3.243c-1.973-.186-3.704-.036-7.29.479h-.007c-3.93.565-5.698.702-7.971.44a.5.5 0 0 1 .114-.993c2.16.249 3.87.116 7.715-.436l.007-.001c3.923-.563 5.696-.7 7.969-.438a.5.5 0 0 1 .439.434zM11 14.45v5.006l1.688-1.347a.5.5 0 1 1 .624.782l-2.506 2a.5.5 0 0 1-.625 0l-2.494-2a.5.5 0 1 1 .626-.781L10 19.463V14.45a2.5 2.5 0 1 1 1 0zm-3.538.727a.5.5 0 0 1 .014 1c-1.882.027-3.622-.089-4.7-.364a.5.5 0 0 1-.377-.484V7.3a.5.5 0 0 1 .613-.487c.187.043.437.089.739.136.34.052 1.189.165 1.155.16 2.467.305 4.397.226 7.603-.157 3.478-.415 4.507-.471 6.088-.158a.5.5 0 0 1 .403.49v8.274a.5.5 0 0 1-.61.488c-1.567-.352-2.24-.377-4.388-.236a2.4 2.4 0 0 1-.232.001h-.009a1.998 1.998 0 0 0-.141 0 .5.5 0 0 1-.067-.998c.062-.005.117-.004.232-.002h.009c.087.002.123.003.142.001 1.947-.128 2.775-.123 4.064.13v-7.24c-1.243-.198-2.334-.12-5.372.243-3.28.391-5.28.474-7.86.155a72.469 72.469 0 0 1-1.37-.195v7.021c.996.19 2.478.273 4.064.25zM10.5 10.5a1.5 1.5 0 1 0 0 3 1.5 1.5 0 0 0 0-3zM5.235 4.989a.5.5 0 0 1 1-.039c.015.4.026.632.035.704a.5.5 0 1 1-.994.116c-.013-.111-.024-.339-.041-.781z"/></svg>