<svg xmlns="http://www.w3.org/2000/svg" viewBox="0 0 24 24"><path fill="#2C2E2F" d="M3.056 19.45c1.972.185 3.703.035 7.288-.48h.007c3.588-.516 5.375-.675 7.389-.5-.004-.059-.007-.1-.01-.124a.5.5 0 0 1 .994-.116c.013.111.024.339.04.781a.5.5 0 0 1-.618.505c-2.131-.239-3.845-.104-7.653.443l-.007.001c-3.923.563-5.696.7-7.969.438a.5.5 0 0 1-.443-.48 49807.036 49807.036 0 0 1-.293-7.301.5.5 0 0 1 .392-.509c.145-.032.297-.06.459-.088a.5.5 0 0 1 .166.986l.129 3.219.13 3.224zM13 9.55V4.544L11.312 5.89a.5.5 0 1 1-.624-.782l2.454-1.958A.499.499 0 0 1 13.503 3a.5.5 0 0 1 .316.11l2.494 2a.5.5 0 0 1-.626.78L14 4.537V9.55a2.5 2.5 0 1 1-1 0zm7.601-.463c-.995-.19-2.477-.273-4.063-.25a.5.5 0 1 1-.014-1c1.882-.027 3.622.089 4.7.363a.5.5 0 0 1 .377.485v8.028a.5.5 0 0 1-.613.487 10.688 10.688 0 0 0-.739-.136 75.68 75.68 0 0 0-1.155-.16c-2.467-.306-4.397-.226-7.603.157-3.478.415-4.507.47-6.088.158a.5.5 0 0 1-.403-.49V8.454a.5.5 0 0 1 .61-.488c1.567.351 2.24.377 4.388.235a2.4 2.4 0 0 1 .232 0h.009c.08.002.12.002.141 0a.5.5 0 1 1 .067.998 2.427 2.427 0 0 1-.232.001h-.009a2.138 2.138 0 0 0-.142 0C8.117 9.327 7.29 9.322 6 9.07v7.24c1.243.198 2.334.12 5.372-.243 3.28-.392 5.28-.474 7.86-.155a72.468 72.468 0 0 1 1.37.195V9.087zM13.5 13.5a1.5 1.5 0 1 0 0-3 1.5 1.5 0 0 0 0 3z"/></svg>