<svg xmlns="http://www.w3.org/2000/svg" viewBox="0 0 24 24"><path fill="#2C2E2F" d="M5.885 11.513c0-3.479 2.452-6.411 5.602-6.694V3.007a.5.5 0 0 1 1 0v2.29a.5.5 0 0 1-.5.5c-2.806 0-5.102 2.583-5.102 5.716v2.765c0 .93-.583 2.048-1.343 2.58l-.102.054a.787.787 0 0 0-.193.125c-.108.092-.161.188-.161.297 0 .003.008.047.029.083.03.052.079.08.233.08h13.478c.153 0 .201-.028.231-.08a.266.266 0 0 0 .029-.083c0-.08-.054-.173-.167-.27a1.01 1.01 0 0 0-.218-.147l-.097-.057c-.741-.563-1.317-1.672-1.317-2.582v-2.765c0-2.298-1.316-4.345-3.265-5.194a.5.5 0 1 1 .4-.916c2.316 1.009 3.865 3.417 3.865 6.11v2.765c0 .576.404 1.368.885 1.756.116.06.258.15.402.274.312.27.512.61.512 1.026 0 .162-.04.367-.161.58-.208.363-.587.583-1.1.583H5.349c-.513 0-.892-.22-1.1-.583a1.17 1.17 0 0 1-.162-.58c0-.434.198-.788.509-1.055.146-.126.291-.213.411-.269.477-.358.879-1.144.879-1.732v-2.765zm7.861 8.565a.5.5 0 1 1 .887.462 2.832 2.832 0 0 1-.51.693c-.51.51-1.341.813-2.136.813-.769 0-1.522-.298-2.043-.812-.195-.194-.297-.354-.473-.696a.5.5 0 1 1 .889-.458c.13.254.188.345.287.443.33.325.83.523 1.34.523.544 0 1.119-.21 1.43-.52.132-.133.243-.283.33-.448z"/></svg>