<svg xmlns="http://www.w3.org/2000/svg" viewBox="0 0 24 24"><path fill="#2C2E2F" d="M20.623 10.621a.5.5 0 0 1 .326.416 8.84 8.84 0 0 1-.01 1.985.5.5 0 0 1-.333.413l-1.935.67c-.124.394-.281.774-.471 1.137l.874 1.88a.5.5 0 0 1-.065.526c-.421.52-.894.988-1.411 1.396a.5.5 0 0 1-.528.057l-1.84-.895a6.977 6.977 0 0 1-1.138.469l-.713 1.949a.5.5 0 0 1-.416.325 8.908 8.908 0 0 1-1.984-.01.5.5 0 0 1-.415-.333l-.67-1.936A6.954 6.954 0 0 1 8.76 18.2l-1.881.874a.5.5 0 0 1-.525-.064 8.863 8.863 0 0 1-1.397-1.41.5.5 0 0 1-.057-.529l.895-1.84a6.928 6.928 0 0 1-.469-1.139l-1.949-.712a.5.5 0 0 1-.325-.416 8.908 8.908 0 0 1 .01-1.984.5.5 0 0 1 .333-.414l1.936-.67c.124-.394.281-.774.471-1.137l-.874-1.881a.5.5 0 0 1 .065-.525 8.952 8.952 0 0 1 1.41-1.395.5.5 0 0 1 .528-.058l1.84.895a6.96 6.96 0 0 1 1.138-.468l.714-1.95a.5.5 0 0 1 .417-.326 8.966 8.966 0 0 1 1.982.01.5.5 0 0 1 .414.334l.67 1.936c.394.124.774.282 1.137.471l1.881-.874a.5.5 0 0 1 .524.064c.514.414.983.887 1.396 1.409a.5.5 0 0 1 .057.529l-.894 1.841c.188.363.345.744.468 1.139l1.95.712zm-.642.83l-1.887-.69a.5.5 0 0 1-.311-.338 5.959 5.959 0 0 0-.574-1.392.5.5 0 0 1-.015-.466l.867-1.785a7.902 7.902 0 0 0-.805-.812l-1.822.847a.5.5 0 0 1-.459-.02 5.965 5.965 0 0 0-1.39-.576.5.5 0 0 1-.341-.319l-.65-1.876a7.968 7.968 0 0 0-1.142-.006l-.691 1.888a.5.5 0 0 1-.338.31c-.49.134-.958.328-1.391.575a.5.5 0 0 1-.467.015L6.781 5.94c-.289.248-.56.517-.813.805l.846 1.822a.5.5 0 0 1-.02.459c-.248.434-.44.9-.575 1.39a.5.5 0 0 1-.32.341l-1.875.649c-.03.381-.032.763-.006 1.144l1.888.69a.5.5 0 0 1 .31.338c.135.493.327.959.574 1.39a.5.5 0 0 1 .016.468l-.867 1.784c.248.29.518.562.805.813l1.822-.846a.5.5 0 0 1 .46.02c.431.247.898.44 1.39.575a.5.5 0 0 1 .34.32l.649 1.875c.38.03.763.032 1.144.006l.69-1.888a.5.5 0 0 1 .339-.31c.49-.134.956-.327 1.391-.575a.5.5 0 0 1 .466-.015l1.784.867c.288-.247.56-.516.814-.806l-.847-1.82a.5.5 0 0 1 .02-.46c.249-.434.442-.9.575-1.39a.5.5 0 0 1 .319-.341l1.876-.649c.03-.38.032-.762.005-1.144zM12.001 14a2 2 0 1 0 0-4 2 2 0 0 0 0 4zm0 1A3 3 0 1 1 12 9a3 3 0 0 1 0 6z"/></svg>