<svg height="512pt" viewBox="0 0 512 512" width="512pt" xmlns="http://www.w3.org/2000/svg"><path d="m467.691406 418.527344v-169.257813c26.09375-11.96875 44.308594-38.640625 44.308594-69.578125 0-.53125-.019531-1.054687-.03125-1.582031.1875-3.128906-.625-6.285156-2.390625-8.980469-.007813-.011718-.015625-.023437-.023437-.035156l-34.316407-52.796875c-.070312-.109375-.140625-.222656-.210937-.332031l-27.027344-41.574219v-30.082031c0-24.433594-19.875-44.308594-44.308594-44.308594h-295.382812c-24.433594 0-44.308594 19.875-44.308594 44.308594v30.082031l-61.554688 94.703125c-.007812.015625-.015624.03125-.023437.042969-1.722656 2.628906-2.5195312 5.683593-2.3867188 8.714843-.015625.613282-.0351562 1.222657-.0351562 1.839844 0 30.9375 18.214844 57.609375 44.308594 69.578125v169.257813c-24.648438 1.285156-44.308594 21.742187-44.308594 46.703125 0 25.789062 20.980469 46.769531 46.769531 46.769531h418.460938c25.789062 0 46.769531-20.980469 46.769531-46.769531 0-24.960938-19.660156-45.417969-44.308594-46.703125zm-18.824218-193.707032c-.953126.265626-1.910157.5-2.871094.699219-.019532.003907-.042969.007813-.0625.015625-1.902344.394532-3.824219.65625-5.753906.796875-.164063.011719-.335938.023438-.5.035157-.917969.054687-1.835938.09375-2.757813.09375-.726563 0-1.449219-.023438-2.167969-.054688-.230468-.011719-.457031-.03125-.6875-.046875-.492187-.03125-.980468-.066406-1.46875-.117187-.261718-.023438-.523437-.054688-.785156-.082032-.457031-.054687-.914062-.113281-1.367188-.179687-.261718-.039063-.519531-.078125-.777343-.121094-.472657-.078125-.945313-.164063-1.414063-.257813-.222656-.042968-.449218-.085937-.667968-.132812-.660157-.140625-1.308594-.292969-1.957032-.464844-.027344-.007812-.054687-.011718-.082031-.019531-.675781-.179687-1.34375-.375-2.003906-.585937-.207031-.066407-.40625-.136719-.609375-.207032-.460938-.148437-.914063-.304687-1.367188-.472656-.234375-.089844-.46875-.179688-.703125-.269531-.417969-.164063-.835937-.332031-1.25-.507813-.234375-.097656-.464843-.195312-.695312-.300781-.433594-.1875-.859375-.390625-1.28125-.59375-.199219-.097656-.398438-.1875-.59375-.285156-.570313-.289063-1.136719-.582031-1.691407-.890625-.042968-.023438-.085937-.046875-.128906-.070313-.601562-.335937-1.191406-.6875-1.773437-1.046875-.171875-.109375-.34375-.222656-.515625-.332031-.40625-.261719-.8125-.523437-1.210938-.800781-.203125-.136719-.402344-.277344-.601562-.421875-.367188-.257813-.730469-.523438-1.09375-.796875-.195313-.148438-.394532-.296875-.589844-.449219-.367188-.289063-.734375-.585937-1.09375-.882813-.167969-.140624-.339844-.28125-.507812-.421874-.46875-.402344-.929688-.8125-1.382813-1.230469-.046875-.046875-.101563-.089844-.148437-.136719-.503907-.46875-.992188-.953125-1.472657-1.441406-.136719-.140625-.269531-.285156-.40625-.425782-.339843-.359374-.675781-.71875-1.003906-1.085937-.164063-.179687-.324219-.367187-.484375-.550781-.292969-.339844-.585938-.6875-.875-1.035156-.160156-.195313-.316406-.386719-.472656-.585938-.289063-.363281-.574219-.738281-.851563-1.113281-.136719-.179688-.273437-.359375-.40625-.542969-.347656-.484375-.6875-.976562-1.019531-1.472656-.050781-.078125-.105469-.152344-.160156-.230469-.378906-.578125-.746094-1.167969-1.101563-1.765625-.101562-.167969-.195312-.339844-.292969-.511719-.25-.429687-.496093-.863281-.730468-1.304687-.121094-.21875-.234375-.445313-.347656-.667969-.210938-.402344-.414063-.804687-.609376-1.214844-.113281-.234375-.222656-.472656-.332031-.707031-.195312-.421875-.382812-.847656-.566406-1.277344-.09375-.222656-.191406-.441406-.28125-.664062-.214844-.535156-.421875-1.074219-.621094-1.613282-.042969-.121093-.089843-.238281-.132812-.359374-.234375-.660157-.457031-1.332032-.664063-2.003907-.058594-.199219-.113281-.398437-.171875-.597656-.105469-.367187-.207031-.738281-.304687-1.105469h87.867187c-4.234375 15.921875-16.484375 28.480469-31.996093 32.816406zm-89.109376-31.117187c-.207031.675781-.429687 1.34375-.664062 2.007813-.042969.121093-.089844.234374-.132812.355468-.199219.542969-.40625 1.082032-.621094 1.613282-.089844.226562-.1875.445312-.28125.667968-.183594.425782-.371094.851563-.5625 1.273438-.109375.238281-.222656.472656-.335938.707031-.195312.410156-.398437.816406-.605468 1.21875-.117188.222656-.230469.445313-.351563.667969-.234375.441406-.480469.871094-.730469 1.304687-.097656.167969-.191406.34375-.292968.511719-.355469.59375-.722657 1.183594-1.101563 1.761719-.054687.078125-.109375.15625-.160156.234375-.332031.496094-.671875.988281-1.019531 1.46875-.132813.183594-.269532.363281-.40625.546875-.277344.375-.5625.746093-.851563 1.113281-.15625.195312-.3125.390625-.472656.582031-.289063.351563-.578125.695313-.875 1.039063-.160157.183594-.320313.367187-.484375.550781-.328125.367187-.664063.726563-1.003906 1.082031-.136719.144532-.269532.289063-.40625.425782-.480469.492187-.96875.976562-1.472657 1.445312-.046875.042969-.101562.089844-.148437.132812-.453125.421876-.914063.828126-1.382813 1.230469-.167969.144531-.339843.28125-.507812.421875-.359375.300782-.726563.59375-1.09375.882813-.195313.152343-.394531.304687-.589844.453125-.359375.269531-.722656.535156-1.089844.796875-.203125.140625-.402343.28125-.605469.421875-.398437.273437-.804687.539062-1.210937.800781-.171875.109375-.339844.222656-.515625.328125-.582031.363281-1.171875.714844-1.773438 1.050781-.042968.023438-.085937.042969-.128906.066407-.554687.308593-1.121094.605468-1.691406.890624-.195312.097657-.394531.191407-.59375.285157-.421875.207031-.847656.40625-1.28125.597656-.230469.101563-.460938.199219-.695312.300781-.414063.171875-.828126.339844-1.25.503906-.234376.09375-.46875.183594-.703126.269532-.453124.167968-.90625.324218-1.363281.476562-.207031.066406-.40625.140625-.613281.203125-.660156.210938-1.328125.40625-2.003906.585938-.027344.007812-.054688.015625-.082032.023437-.648437.167969-1.300781.320313-1.953124.464844-.222657.046875-.449219.085938-.671876.128906-.46875.09375-.941406.183594-1.414062.261719-.257812.042969-.515625.082031-.777344.117187-.453125.066407-.910156.125-1.367187.179688-.261719.03125-.519531.058594-.785157.085938-.484374.046874-.976562.082031-1.46875.113281-.230468.015625-.457031.035156-.6875.046875-.71875.035156-1.441406.054687-2.167968.054687-.730469 0-1.453125-.019531-2.171875-.054687-.230469-.011719-.457031-.03125-.683594-.046875-.492187-.03125-.984375-.066407-1.472656-.113281-.261719-.027344-.523438-.054688-.78125-.085938-.460938-.054688-.917969-.113281-1.371094-.179688-.257813-.039062-.515625-.074218-.773437-.117187-.476563-.078125-.945313-.167969-1.417969-.261719-.222657-.042968-.445313-.082031-.667969-.128906-.65625-.140625-1.308594-.296875-1.953125-.464844-.027344-.007812-.054687-.015625-.085937-.023437-.671876-.179688-1.339844-.375-2.003907-.585938-.203125-.0625-.40625-.136719-.609375-.203125-.457031-.152344-.914062-.308594-1.363281-.476562-.238281-.085938-.472656-.175782-.707031-.269532-.417969-.164062-.835938-.332031-1.25-.503906-.230469-.101562-.464844-.199218-.695313-.300781-.429687-.191406-.855469-.390625-1.28125-.597656-.199219-.09375-.398437-.1875-.59375-.285157-.570312-.285156-1.132812-.582031-1.691406-.890624-.039063-.023438-.085937-.042969-.128906-.066407-.597657-.335937-1.1875-.6875-1.773438-1.050781-.171875-.105469-.339843-.21875-.511719-.328125-.410156-.261719-.8125-.527344-1.214843-.800781-.203125-.140625-.402344-.28125-.601563-.421875-.367187-.261719-.730468-.527344-1.089844-.796875-.199218-.148438-.394531-.300782-.589843-.453125-.371094-.289063-.734375-.582031-1.09375-.882813-.171875-.140625-.34375-.277344-.507813-.421875-.46875-.398437-.929687-.808593-1.382812-1.230469-.050782-.042968-.101563-.089843-.152344-.132812-.5-.472656-.992188-.953125-1.472656-1.445312-.136719-.140626-.269532-.285157-.402344-.425782-.339844-.355468-.679688-.714844-1.007812-1.082031-.160157-.183594-.320313-.367187-.480469-.550781-.296875-.34375-.589844-.6875-.875-1.039063-.160157-.191406-.316407-.386719-.472657-.582031-.292968-.367188-.574218-.738281-.855468-1.113281-.132813-.183594-.269532-.363281-.402344-.546875-.351562-.480469-.691406-.972656-1.019531-1.46875-.054688-.078125-.109375-.15625-.160157-.234375-.378906-.578125-.746093-1.167969-1.101562-1.761719-.101562-.167969-.195312-.34375-.292969-.511719-.253906-.433593-.496093-.867187-.734375-1.304687-.117187-.222656-.234375-.445313-.347656-.667969-.207031-.402344-.410156-.808594-.609375-1.21875-.113281-.234375-.222656-.46875-.332031-.707031-.195313-.417969-.382813-.847656-.5625-1.273438-.09375-.222656-.191406-.441406-.28125-.667968-.21875-.53125-.425782-1.070313-.621094-1.613282-.042969-.117187-.09375-.234375-.136719-.355468-.234375-.664063-.453125-1.332032-.660156-2.007813-.0625-.199219-.113281-.398437-.171875-.597656-.109375-.363281-.207031-.734375-.304688-1.105469h87.851563c-.097656.371094-.199219.738281-.304687 1.105469-.058594.199219-.113282.398437-.171876.597656zm-120.617187 0c-.207031.675781-.425781 1.34375-.660156 2.007813-.042969.121093-.09375.234374-.136719.355468-.195312.542969-.402344 1.082032-.621094 1.613282-.089844.226562-.1875.445312-.28125.667968-.179687.425782-.367187.851563-.5625 1.273438-.109375.238281-.21875.472656-.332031.707031-.199219.410156-.402344.816406-.609375 1.21875-.113281.222656-.230469.445313-.347656.667969-.238282.441406-.480469.871094-.734375 1.304687-.097657.167969-.191407.34375-.292969.511719-.355469.59375-.71875 1.183594-1.101562 1.761719-.050782.078125-.105469.15625-.160157.234375-.328125.496094-.667969.988281-1.019531 1.46875-.128906.183594-.269531.363281-.402344.546875-.28125.375-.5625.746093-.855468 1.113281-.15625.195312-.3125.390625-.472657.582031-.285156.351563-.578125.695313-.875 1.039063-.160156.183594-.320312.367187-.480469.550781-.328124.367187-.667968.726563-1.007812 1.082031-.132812.144532-.265625.289063-.402344.425782-.480468.492187-.972656.976562-1.472656 1.445312-.050781.042969-.101562.089844-.152344.132812-.453125.421876-.914062.828126-1.382812 1.230469-.164063.144531-.335938.28125-.507813.421875-.359375.300782-.722656.59375-1.09375.882813-.195312.152343-.390625.304687-.589843.453125-.359376.269531-.722657.535156-1.089844.796875-.199219.140625-.398438.28125-.601563.421875-.402343.273437-.804687.539062-1.214843.800781-.171876.109375-.339844.222656-.511719.328125-.585938.363281-1.175781.714844-1.773438 1.050781-.042969.023438-.089843.042969-.128906.066407-.558594.308593-1.121094.605468-1.691406.890624-.195313.097657-.394531.191407-.59375.285157-.425781.207031-.851563.40625-1.28125.597656-.230469.101563-.464844.199219-.695313.300781-.414062.171875-.832031.339844-1.25.503906-.234375.09375-.46875.183594-.707031.269532-.449219.167968-.90625.324218-1.363281.476562-.203125.066406-.40625.140625-.609375.203125-.664063.210938-1.332031.40625-2.003907.585938-.03125.007812-.058593.015625-.085937.023437-.644531.167969-1.296875.320313-1.953125.464844-.222656.046875-.445312.085938-.667969.128906-.472656.09375-.941406.183594-1.417969.261719-.257812.042969-.515624.082031-.773437.117187-.453125.066407-.910156.125-1.371094.179688-.257812.03125-.519531.058594-.78125.085938-.488281.046874-.980469.082031-1.472656.113281-.226563.015625-.453125.035156-.683594.046875-.71875.035156-1.441406.054687-2.171875.054687-.726562 0-1.449218-.019531-2.167968-.054687-.230469-.011719-.457032-.03125-.6875-.046875-.492188-.03125-.980469-.066407-1.46875-.113281-.261719-.027344-.523438-.054688-.785157-.085938-.457031-.054688-.914062-.113281-1.367187-.179688-.261719-.039062-.519532-.074218-.777344-.117187-.472656-.078125-.945312-.167969-1.414062-.261719-.222657-.042968-.449219-.082031-.671876-.128906-.65625-.140625-1.308593-.296875-1.953124-.464844-.027344-.007812-.054688-.015625-.082032-.023437-.675781-.179688-1.34375-.375-2.003906-.585938-.207031-.0625-.40625-.136719-.613281-.203125-.457031-.152344-.910157-.308594-1.363281-.476562-.234376-.085938-.46875-.175782-.703126-.269532-.421874-.164062-.835937-.332031-1.25-.503906-.234374-.101562-.464843-.199218-.695312-.300781-.433594-.191406-.859375-.390625-1.28125-.597656-.199219-.09375-.398438-.1875-.59375-.285157-.570312-.285156-1.136719-.582031-1.691406-.890624-.042969-.023438-.085938-.042969-.128906-.066407-.601563-.335937-1.191407-.6875-1.773438-1.050781-.175781-.105469-.34375-.21875-.515625-.328125-.40625-.261719-.8125-.527344-1.210937-.800781-.203126-.140625-.402344-.28125-.605469-.421875-.367188-.261719-.730469-.527344-1.089844-.796875-.195313-.148438-.394531-.300782-.589844-.453125-.367187-.289063-.734375-.582031-1.09375-.882813-.167969-.140625-.339843-.277344-.507812-.421875-.46875-.398437-.929688-.808593-1.382813-1.230469-.046875-.042968-.101562-.089843-.148437-.132812-.503907-.472656-.992188-.953125-1.472657-1.445312-.136718-.140626-.269531-.285157-.40625-.425782-.339843-.355468-.675781-.714844-1.003906-1.082031-.164062-.183594-.324218-.367187-.484375-.550781-.296875-.34375-.585937-.6875-.875-1.039063-.160156-.191406-.316406-.386719-.472656-.582031-.289063-.367188-.574219-.738281-.851563-1.113281-.136718-.183594-.273437-.363281-.40625-.546875-.347656-.480469-.6875-.972656-1.019531-1.46875-.050781-.078125-.105469-.15625-.160156-.234375-.378906-.578125-.746094-1.167969-1.101563-1.761719-.101562-.167969-.195312-.34375-.292968-.511719-.25-.433593-.496094-.867187-.730469-1.304687-.121094-.222656-.234375-.445313-.351563-.667969-.207031-.402344-.410156-.808594-.605468-1.21875-.113282-.234375-.226563-.46875-.335938-.707031-.191406-.417969-.378906-.847656-.5625-1.273438-.09375-.222656-.191406-.441406-.28125-.667968-.214844-.53125-.421875-1.070313-.621094-1.613282-.042968-.117187-.089843-.234375-.132812-.355468-.234375-.664063-.457031-1.332032-.664062-2.007813-.058594-.199219-.113282-.398437-.171876-.597656-.105468-.363281-.207031-.734375-.304687-1.105469h87.851563c-.097657.371094-.199219.738281-.304688 1.105469-.058594.199219-.109375.398437-.171875.597656zm-147.988281-106.882813c1.558594-2.398437 2.386718-5.195312 2.386718-8.050781v-34.460937c0-8.144532 6.625-14.769532 14.769532-14.769532h295.382812c8.144532 0 14.769532 6.625 14.769532 14.769532v34.460937c0 2.855469.828124 5.652344 2.386718 8.050781l49.164063 75.640626h-428.027344zm-60.015625 105.179688h87.867187c-.097656.371094-.199218.738281-.304687 1.105469-.058594.199219-.113281.398437-.171875.597656-.207032.675781-.429688 1.34375-.664063 2.007813-.042969.121093-.089843.234374-.132812.355468-.199219.542969-.40625 1.082032-.621094 1.613282-.089844.226562-.1875.445312-.28125.667968-.183594.425782-.371094.851563-.566406 1.273438-.109375.238281-.21875.472656-.332031.707031-.195313.410156-.398438.816406-.609376 1.21875-.113281.222656-.230468.445313-.347656.667969-.234375.441406-.480468.871094-.730468 1.304687-.097657.167969-.191407.34375-.292969.511719-.355469.59375-.722657 1.183594-1.101563 1.761719-.054687.078125-.109375.15625-.160156.234375-.332031.496094-.671875.988281-1.019531 1.46875-.132813.183594-.269531.363281-.40625.546875-.277344.375-.5625.746093-.851563 1.113281-.15625.195312-.3125.390625-.472656.582031-.289062.351563-.578125.695313-.875 1.039063-.160156.183594-.320312.367187-.484375.550781-.328125.367187-.664063.726563-1.003906 1.082031-.136719.144532-.269531.289063-.40625.425782-.480469.492187-.96875.976562-1.472657 1.445312-.050781.042969-.101562.089844-.148437.132812-.453125.421876-.914063.828126-1.382813 1.230469-.167968.144531-.339843.28125-.507812.421875-.359375.300782-.726562.59375-1.09375.882813-.195312.152343-.394531.304687-.589844.453125-.363281.269531-.726562.535156-1.09375.796875-.199218.140625-.398437.28125-.601562.421875-.398438.273437-.804688.539062-1.210938.800781-.171875.109375-.339844.222656-.515625.328125-.582031.363281-1.171875.714844-1.773437 1.050781-.042969.023438-.085938.042969-.128906.066407-.554688.308593-1.121094.605468-1.691407.890624-.195312.097657-.394531.191407-.59375.285157-.421875.207031-.847656.40625-1.28125.597656-.230469.101563-.460937.199219-.695312.300781-.414063.171875-.828125.339844-1.25.503906-.234375.09375-.46875.183594-.703125.269532-.453125.167968-.910156.324218-1.367188.476562-.203125.066406-.402344.140625-.609375.203125-.660156.210938-1.328125.40625-2.003906.585938-.027344.007812-.054687.015625-.082031.023437-.648438.167969-1.300782.320313-1.957032.464844-.21875.046875-.445312.085938-.667968.128906-.46875.09375-.941406.183594-1.414063.261719-.257812.042969-.515625.082031-.777343.117187-.453126.066407-.910157.125-1.367188.179688-.261719.03125-.519531.058594-.785156.085938-.488282.046874-.976563.082031-1.46875.113281-.230469.015625-.457032.035156-.6875.046875-.71875.039062-1.441406.058594-2.167969.058594-.917969 0-1.839844-.035157-2.757813-.09375-.167968-.011719-.335937-.019532-.5-.03125-1.929687-.144532-3.851562-.40625-5.753906-.800782-.019531-.003906-.042968-.007812-.0625-.011718-.960937-.203126-1.917968-.4375-2.871094-.703126-15.511718-4.335937-27.761718-16.894531-31.996093-32.820312zm47.417969 63.910156c.210937-.007812.417968-.015625.628906-.027344 1.105468-.0625 2.203125-.148437 3.296875-.257812.210937-.019531.421875-.042969.636719-.066406 1.121093-.125 2.238281-.261719 3.347656-.4375.042968-.003906.089844-.015625.132812-.019532 1.082032-.171874 2.15625-.371093 3.226563-.589843.191406-.039063.386719-.074219.582031-.117188 1.054688-.222656 2.097656-.46875 3.136719-.734375.210937-.054687.417969-.113281.628906-.167968 1.058594-.285157 2.109375-.582032 3.148437-.910157.078126-.027343.15625-.054687.234376-.078125.996093-.320312 1.984374-.664062 2.960937-1.023437.179687-.066407.359375-.125.535156-.195313.992188-.371094 1.96875-.765625 2.941407-1.179687.203124-.085938.40625-.175781.613281-.265625.980469-.429688 1.953125-.871094 2.910156-1.339844.101563-.050781.199219-.101562.296875-.152344.914062-.449218 1.8125-.917968 2.703125-1.40625.15625-.085937.316406-.171875.472656-.257812.917969-.507813 1.820313-1.039063 2.714844-1.585938.191406-.117187.382813-.238281.574219-.359375.894531-.558593 1.78125-1.132812 2.652344-1.726562.109374-.078125.21875-.15625.328124-.230469.820313-.570312 1.632813-1.160156 2.429688-1.761719.136719-.101562.273438-.199219.40625-.300781.832031-.636719 1.648438-1.289062 2.453125-1.960938.171875-.144531.34375-.289062.515625-.433593.804688-.679688 1.59375-1.371094 2.367188-2.085938.113281-.101562.21875-.203125.328124-.304687.730469-.683594 1.453126-1.378906 2.15625-2.09375.105469-.105469.214844-.207032.316407-.3125.738281-.753906 1.460937-1.523438 2.167969-2.308594.148437-.164062.292968-.328125.441406-.496094.699218-.785156 1.382812-1.585937 2.050781-2.402344.101563-.125.199219-.253906.300781-.378906.636719-.792968 1.261719-1.59375 1.867188-2.414062.074218-.097656.148437-.195313.222656-.292969.035156-.046875.070312-.09375.105469-.140625.035156.046875.070312.089844.105469.140625.074218.097656.148437.195313.222656.292969.605468.820312 1.230468 1.625 1.867187 2.414062.101563.125.199219.253906.300781.378906.667969.816407 1.351563 1.617188 2.050782 2.402344.148437.167969.292968.332032.441406.496094.707031.785156 1.429688 1.554688 2.167969 2.308594.101562.105468.210937.207031.316406.3125.703125.714844 1.421875 1.410156 2.15625 2.09375.109375.101562.21875.203125.328125.304687.773438.714844 1.5625 1.40625 2.367188 2.085938.167968.144531.339843.289062.515624.433593.804688.671876 1.621094 1.324219 2.453126 1.960938.132812.101562.269531.199219.40625.300781.796874.601563 1.605468 1.191407 2.429687 1.761719.109375.074219.21875.152344.328125.230469.871094.59375 1.757812 1.167969 2.652344 1.726562.191406.121094.382812.242188.574218.359375.894532.546875 1.796876 1.078125 2.714844 1.585938.15625.085937.316406.171875.472656.257812.890626.488282 1.789063.957032 2.699219 1.40625.101563.050782.199219.101563.300781.152344.957032.46875 1.929688.910156 2.910157 1.339844.207031.089844.410156.179687.613281.265625.96875.414062 1.949219.808593 2.941406 1.179687.175782.070313.355469.132813.535156.195313.976563.359375 1.964844.703125 2.960938 1.023437.078125.023438.15625.050782.234375.078125 1.039063.328125 2.089844.625 3.148437.910157.207032.054687.417969.113281.628907.167968 1.039062.265625 2.082031.511719 3.136719.734375.195312.042969.386718.078125.582031.117188 1.070312.21875 2.140625.417969 3.226562.589843.042969.003907.089844.015626.132813.019532 1.109375.175781 2.226562.3125 3.347656.4375.214844.019531.425781.046875.636719.066406 1.09375.109375 2.191406.195312 3.296875.257812.210937.011719.417968.019532.628906.027344 1.152344.054688 2.3125.089844 3.476562.089844 1.167969 0 2.324219-.035156 3.480469-.089844.207031-.007812.417969-.015625.625-.027344 1.105469-.0625 2.203125-.148437 3.296875-.257812.214844-.019531.425782-.042969.636719-.066406 1.125-.125 2.242187-.261719 3.351563-.4375.042968-.003906.085937-.015625.132812-.019532 1.082031-.171874 2.15625-.371093 3.222656-.589843.195313-.039063.390625-.074219.582032-.117188 1.054687-.222656 2.101562-.46875 3.136718-.734375.210938-.054687.421875-.113281.632813-.167968 1.058593-.285157 2.109375-.582032 3.148437-.910157.078125-.027343.152344-.054687.230469-.078125 1-.320312 1.984375-.664062 2.964844-1.023437.175781-.066407.355469-.125.535156-.195313.988281-.371094 1.96875-.765625 2.9375-1.179687.207031-.085938.410156-.175781.613281-.265625.980469-.429688 1.953125-.871094 2.914063-1.339844.097656-.050781.199219-.101562.296875-.152344.910156-.449218 1.808594-.917968 2.699218-1.40625.160157-.085937.320313-.171875.476563-.257812.914063-.507813 1.816406-1.039063 2.710937-1.585938.195313-.117187.382813-.238281.578126-.359375.894531-.558593 1.78125-1.132812 2.652343-1.726562.109375-.078125.21875-.15625.328125-.230469.820313-.570312 1.628906-1.160156 2.429688-1.761719.132812-.101562.269531-.199219.402344-.300781.832031-.636719 1.648437-1.289062 2.457031-1.960938.171875-.144531.34375-.289062.515625-.433593.800781-.679688 1.59375-1.371094 2.367187-2.085938.109375-.101562.214844-.203125.324219-.304687.734375-.683594 1.453125-1.378906 2.160156-2.09375.105469-.105469.210938-.207032.316406-.3125.738282-.753906 1.457032-1.523438 2.164063-2.308594.148437-.164062.296875-.328125.441406-.496094.699219-.785156 1.386719-1.585937 2.054688-2.402344.097656-.125.199219-.253906.296875-.378906.636718-.792968 1.261718-1.59375 1.867187-2.414062.074219-.097656.152344-.195313.222657-.292969.035156-.046875.074218-.09375.109374-.140625.03125.046875.070313.089844.105469.140625.070313.097656.148438.195313.222657.292969.605468.820312 1.226562 1.625 1.867187 2.414062.097656.125.199219.253906.296875.378906.667969.816407 1.355469 1.617188 2.054688 2.402344.144531.167969.292968.332032.441406.496094.707031.785156 1.425781 1.554688 2.164062 2.308594.105469.105468.210938.207031.316406.3125.707032.714844 1.425782 1.410156 2.160157 2.09375.109375.101562.214843.203125.324219.304687.773437.714844 1.566406 1.40625 2.367187 2.085938l.515625.433593c.804688.671876 1.625 1.324219 2.457031 1.960938.132813.101562.269531.199219.402344.300781.800781.601563 1.609375 1.191407 2.429687 1.761719.113282.074219.21875.152344.328126.230469.871093.59375 1.757812 1.167969 2.652343 1.726562.195313.121094.386719.242188.578125.359375.890625.546875 1.792969 1.078125 2.710938 1.585938.15625.085937.316406.171875.476562.257812.890625.488282 1.789063.957032 2.699219 1.40625.097656.050782.199219.101563.296875.152344.960938.46875 1.933594.910156 2.914062 1.339844.203126.089844.40625.179687.613282.265625.96875.414062 1.949218.808593 2.9375 1.179687.179687.070313.359375.132813.535156.195313.980469.359375 1.964844.703125 2.964844 1.023437.078125.023438.15625.050782.230468.078125 1.039063.328125 2.089844.625 3.148438.910157.210938.054687.417969.113281.632812.167968 1.035157.265625 2.082032.511719 3.136719.734375.191407.042969.386719.078125.582031.117188 1.066407.21875 2.140626.417969 3.222657.589843.046875.003907.089843.015626.132812.019532 1.109375.175781 2.226563.3125 3.351563.4375.210937.019531.421875.046875.636718.066406 1.09375.109375 2.191407.195312 3.296876.257812.207031.011719.417968.019532.625.027344 1.15625.054688 2.3125.089844 3.480468.089844 1.164063 0 2.324219-.035156 3.476563-.089844.210937-.007812.417969-.015625.628906-.027344 1.105469-.0625 2.203125-.148437 3.296875-.257812.210938-.019531.421875-.042969.636719-.066406 1.121093-.125 2.242187-.261719 3.347656-.4375.042969-.003906.089844-.015625.132813-.019532 1.082031-.171874 2.15625-.371093 3.226562-.589843.195312-.039063.386719-.074219.582031-.117188 1.054688-.222656 2.101563-.46875 3.136719-.734375.210938-.054687.421875-.113281.632812-.167968 1.054688-.285157 2.105469-.582032 3.144532-.910157.078125-.027343.15625-.054687.234375-.078125.996093-.320312 1.984375-.664062 2.960937-1.023437.179688-.066407.359375-.125.535156-.195313.992188-.371094 1.972657-.765625 2.941407-1.179687.203125-.085938.40625-.175781.613281-.265625.980469-.429688 1.953125-.871094 2.910156-1.339844.101563-.050781.199219-.101562.300782-.152344.910156-.449218 1.808593-.917968 2.699218-1.40625.15625-.085937.316406-.171875.472656-.257812.917969-.507813 1.820313-1.039063 2.714844-1.585938.191406-.117187.382813-.238281.574219-.359375.894531-.558593 1.78125-1.132812 2.652344-1.726562.109375-.078125.21875-.15625.328125-.230469.824218-.570312 1.632812-1.160156 2.429687-1.761719.136719-.101562.273438-.199219.40625-.300781.832031-.636719 1.648438-1.289062 2.453125-1.960938.175782-.144531.34375-.289062.519532-.433593.800781-.679688 1.589843-1.371094 2.363281-2.085938.113281-.101562.21875-.203125.328125-.304687.730468-.683594 1.453125-1.378906 2.15625-2.09375.105468-.105469.214844-.207032.316406-.3125.738281-.753906 1.460938-1.523438 2.167969-2.308594.148437-.164062.292969-.328125.441406-.496094.699219-.785156 1.382813-1.585937 2.050781-2.402344.101563-.125.199219-.253906.300782-.378906.636718-.792968 1.261718-1.59375 1.867187-2.414062.074219-.097656.148437-.195313.222656-.292969.035157-.046875.070313-.09375.105469-.140625.035156.046875.070312.089844.105469.140625.074219.097656.148437.195313.222656.292969.609375.820312 1.230469 1.625 1.867187 2.414062.101563.125.199219.253906.300782.378906.667968.816407 1.351562 1.617188 2.050781 2.402344.148437.167969.292969.332032.445313.496094.703124.785156 1.425781 1.554688 2.164062 2.308594.105469.105468.210938.207031.316406.3125.703125.714844 1.421875 1.410156 2.15625 2.09375.109375.101562.21875.203125.328125.304687.773438.714844 1.5625 1.40625 2.367188 2.085938.167969.144531.34375.289062.515625.433593.804687.671876 1.621094 1.324219 2.453125 1.960938.132812.101562.269531.199219.40625.300781.796875.601563 1.609375 1.191407 2.429687 1.761719.109375.074219.21875.152344.328125.230469.871094.59375 1.757813 1.167969 2.652344 1.726562.191406.121094.382813.242188.574219.359375.894531.546875 1.796875 1.078125 2.714844 1.585938.15625.085937.316406.171875.472656.257812.890625.488282 1.789062.957032 2.703125 1.40625.097656.050782.195312.101563.296875.152344.957031.46875 1.929687.910156 2.914062 1.339844.203125.089844.40625.179687.609375.265625.972657.414062 1.949219.808593 2.941407 1.179687.175781.070313.355468.132813.535156.195313.976562.359375 1.964844.703125 2.960937 1.023437.078125.023438.15625.050782.234375.078125 1.039063.328125 2.089844.625 3.148438.910157.210937.054687.417968.113281.628906.167968 1.039062.265625 2.085938.511719 3.136719.734375.195312.042969.390625.078125.582031.117188 1.070312.21875 2.140625.417969 3.226562.589843.042969.003907.089844.015626.132813.019532 1.109375.175781 2.226563.3125 3.351563.4375.210937.019531.421874.046875.632812.066406 1.09375.109375 2.191406.195312 3.296875.257812.210937.011719.417969.019532.628906.027344 1.152344.054688 2.3125.089844 3.476563.089844.410156 0 .820312-.003906 1.230468-.011719v162.472657h-196.933593v-93.539063c0-24.429687-19.875-44.304687-44.308594-44.304687h-39.382813c-24.433593 0-44.308593 19.875-44.308593 44.304687v93.539063h-39.382813v-162.472657c.410156.007813.820313.011719 1.230469.011719 1.164063 0 2.324219-.035156 3.476563-.089844zm133.136718 162.550782h-68.921875v-93.539063c0-8.140625 6.625-14.769531 14.769531-14.769531h39.382813c8.144531 0 14.769531 6.628906 14.769531 14.769531zm253.539063 64h-418.460938c-9.5 0-17.230469-7.730469-17.230469-17.230469s7.730469-17.230469 17.230469-17.230469h418.460938c9.5 0 17.230469 7.730469 17.230469 17.230469s-7.730469 17.230469-17.230469 17.230469zm0 0"/><path d="m315.078125 369.230469h39.382813c24.433593 0 44.308593-19.875 44.308593-44.308594 0-24.429687-19.875-44.304687-44.308593-44.304687h-39.382813c-24.433594 0-44.308594 19.875-44.308594 44.304687 0 24.433594 19.875 44.308594 44.308594 44.308594zm0-59.078125h39.382813c8.144531 0 14.769531 6.628906 14.769531 14.769531 0 8.144531-6.625 14.769531-14.769531 14.769531h-39.382813c-8.144531 0-14.769531-6.625-14.769531-14.769531 0-8.140625 6.625-14.769531 14.769531-14.769531zm0 0"/><path d="m398.769531 78.769531c0-8.15625-6.613281-14.769531-14.769531-14.769531h-256c-8.15625 0-14.769531 6.613281-14.769531 14.769531s6.613281 14.769531 14.769531 14.769531h256c8.15625 0 14.769531-6.613281 14.769531-14.769531zm0 0"/></svg>