<svg xmlns="http://www.w3.org/2000/svg" viewBox="0 0 24 24"><path fill="#2C2E2F" d="M15.093 6.682c-1.125 1.634-2.638 2.737-4.584 3.036a.5.5 0 0 1-.55-.337.871.871 0 0 0-1.698.276l.002.02.002.074c0 .737.34 1.295.93 1.721a3.404 3.404 0 0 0 .973.483.5.5 0 1 1-.255.967 4.102 4.102 0 0 1-1.303-.639c-.832-.6-1.345-1.442-1.345-2.532l-.001-.02c-.002-.028-.002-.028-.002-.074a1.871 1.871 0 0 1 3.455-.995c1.474-.327 2.645-1.229 3.553-2.547.413-.6.743-1.246.995-1.891.151-.386.242-.681.28-.842a.5.5 0 0 1 .912-.145c.686 1.113.86 1.88.853 3.065 0 .084 0 .084-.002.167l-.002.328v.01c-.004.337.024.787.11 1.216.046.225.105.42.175.577.096.212.235.437.467.764l.247.348c.096.137.169.245.232.348.185.3.285.543.285.8 0 .268-.123.486-.33.703-.113.119-.157.156-.466.41-.312.257-.43.396-.43.429 0 1.468-.363 3.241-1.206 3.616-.657.292-1.65.444-2.89.476V20a.5.5 0 0 1-.727.445l-5.5-2.804A.5.5 0 0 1 7 17.196v-2.043a.5.5 0 1 1 1 0v1.736l4.5 2.295V16a.5.5 0 0 1 .5-.5c1.344 0 2.401-.137 2.983-.396.291-.129.613-1.7.613-2.702 0-.466.23-.736.795-1.201.318-.262.43-.38.43-.34 0-.079-.088-.223-.58-.92-.266-.376-.433-.645-.562-.93a3.728 3.728 0 0 1-.242-.79 6.996 6.996 0 0 1-.13-1.434l.001-.329.002-.163c.004-.595-.04-1.043-.196-1.502a10.253 10.253 0 0 1-1.02 1.89z"/></svg>